<svg xmlns="http://www.w3.org/2000/svg" version="1.1" xmlns:xlink="http://www.w3.org/1999/xlink" width="1000" height="1000"><metadata><rdf:RDF xmlns:rdf="http://www.w3.org/1999/02/22-rdf-syntax-ns#" xmlns:dc="http://purl.org/dc/elements/1.1/"><rdf:Description><dc:creator>RealFaviconGenerator</dc:creator><dc:source>https://realfavicongenerator.net</dc:source></rdf:Description></rdf:RDF></metadata><g clip-path="url(#SvgjsClipPath1865)"><rect width="1000" height="1000" fill="#0e131d"></rect><g transform="matrix(1.953125,0,0,1.953125,0,0)"><svg xmlns="http://www.w3.org/2000/svg" version="1.1" xmlns:xlink="http://www.w3.org/1999/xlink" id="Layer_1" x="0px" y="0px" viewBox="0 0 512 512" style="enable-background:new 0 0 512 512;" xml:space="preserve" width="512" height="512"><g>
	<rect style="fill:#0E131D;" width="512" height="512"></rect>
</g><g id="_レイヤー_2-2">
	<g>
		<path style="fill:#F7F7F7;" d="M265.356,103.783c-0.859,1.718,0.355,1.475,1.195,0.373c1.774-2.371,6.255-6.311,7.767-7.282
			c1.568,1.083,3.193-0.131,3.38-1.158c0.187-1.027-0.224-3.025-3.006-2.726C271.611,93.327,267.092,100.31,265.356,103.783z"></path>
		<path style="fill:#F7F7F7;" d="M280.573,144.711c2.259-4.164,6.759-9.149,10.531-12.192c3.734-3.025-1.195-3.342-4.201-1.755
			c-3.025,1.587-6.031,5.471-8.346,13.705C277.978,146.522,279.509,146.653,280.573,144.711z"></path>
		<path style="fill:#F7F7F7;" d="M315.433,150.443c-3.828,26.028-22.294,109.918-54.969,155.906
			c-0.112,0.149-0.317,0.448-0.598,0.766c-0.037,0.037-0.093,0.093-0.131,0.149c-0.654,0.635-1.382,1.027-2.203,0.616
			c-0.934-0.467-0.56-1.755-0.28-2.353c0.037-0.112,0.093-0.205,0.112-0.261c0.131-0.243,0.261-0.448,0.373-0.597
			c35.42-46.454,52.691-147.597,53.382-151.052c-4.612,3.099-12.846,8.178-24.964,18.037
			c-15.367,12.491-28.231,25.132-28.959,26.009c-0.037,0.037-0.093,0.075-0.112,0.093c-0.037,0.037-0.075,0.093-0.093,0.112
			c-0.037,0.037-0.112,0.075-0.149,0.093c-0.093,0.075-0.168,0.112-0.28,0.149c-0.093,0.037-0.168,0.075-0.261,0.093
			c-0.112,0-0.205,0.019-0.317,0.019c-0.093,0-0.205-0.019-0.28-0.019c-0.093-0.019-0.205-0.037-0.28-0.093
			c-0.093-0.037-0.168-0.093-0.261-0.149c-0.075-0.019-0.112-0.037-0.149-0.093c-0.037-0.019-0.075-0.075-0.093-0.112
			c-0.037-0.019-0.093-0.037-0.112-0.093c-0.728-0.878-13.593-13.518-28.959-26.009c-12.099-9.858-20.352-14.918-24.964-18.037
			c0.691,3.454,17.943,104.616,53.344,151.052c0.112,0.149,0.243,0.355,0.373,0.597c0.224,0.392,0.896,2.073-0.168,2.633
			c-0.822,0.411-1.55,0.019-2.185-0.616c-0.037-0.075-0.093-0.112-0.131-0.149c-0.28-0.336-0.485-0.616-0.597-0.766
			c-32.675-45.988-51.122-129.878-54.987-155.906c-0.149-1.139-0.355-2.67,0.168-3.025c0.504-0.355,2.073,0.485,2.595,0.84
			c2.707,1.718,12.491,7.935,28.474,20.968c13.033,10.587,24.497,21.472,28.194,25.206c3.734-3.734,15.199-14.62,28.212-25.206
			c15.983-13.033,25.767-19.25,28.455-20.968c0.523-0.355,2.091-1.195,2.633-0.84c0.504,0.355,0.336,1.867,0.149,3.025
			L315.433,150.443z"></path>
		<path style="fill:#F7F7F7;" d="M281.6,247.142c0.971-2.054,1.587-4.967,1.587-8.626c0-1.288-1.979-1.475-2.017-0.056
			c-0.056,2.371-0.373,4.238-1.4,6.311c-2.371,1.718-7.114,4.369-10.027,5.881c-2.913,1.512-4.276,2.67-4.855,4.612
			c-0.467,1.587-2.091,6.628-3.996,12.416c1.139-0.766,2.297-1.363,3.398-1.886c0.971-1.512,2.166-3.417,5.228-9.84
			C270.92,254.555,281.059,247.777,281.6,247.142L281.6,247.142z"></path>
		<path style="fill:#F7F7F7;" d="M295.361,175.183c2.465,1.998,4.294-3.361,4.668-5.751
			C297.769,170.291,292.915,173.185,295.361,175.183z"></path>
		<path style="fill:#F7F7F7;" d="M268.829,168.05c1.886-2.073,3.958-6.759,4.649-8.794c-5.919,0.728-12.342,6.89-12.771,9.224
			C263.451,168.666,266.327,168.536,268.829,168.05L268.829,168.05z"></path>
		<path style="fill:#F7F7F7;" d="M344.149,259.391c-0.112,0.336-0.224,0.691-0.317,1.083c-0.411,1.811,0.037,3.753,0.654,3.772
			h0.037c0.598,0,0.971-2.147,1.587-3.716c1.848-4.743,10.717-12.192,10.717-12.192s6.871-7.076,9.802-8.757
			c0.523-0.299,2.035-1.998,1.83-2.577c-0.336-1.008-2.278,0.224-2.801,0.541c-0.411,0.243-0.822,0.504-1.214,0.784
			c7.338-9.952,12.36-21.155,13.07-34.281c0.037-0.597-0.429-1.12-1.027-1.158c-0.598-0.056-1.12,0.429-1.158,1.027
			c-1.4,25.953-20.352,44.363-40.629,60.383c-14.433,11.408-27.951,20.837-36.895,27.092c-3.697,2.577-6.61,4.612-8.533,6.05
			c-0.485,0.355-0.579,1.046-0.224,1.531c0.224,0.28,0.541,0.448,0.878,0.448c0.224,0,0.467-0.075,0.654-0.224
			c1.886-1.419,4.799-3.436,8.477-6.012c8.962-6.274,22.518-15.721,36.988-27.167c2.726-2.166,5.433-4.369,8.085-6.628
			L344.149,259.391z"></path>
		<path style="fill:#F7F7F7;" d="M345.643,205.953c0.299,0.485-0.224,2.782,1.587,3.099c1.438,0.261,2.651-1.4,2.95-1.867
			c1.475-2.315,2.129-6.498-2.95-8.776c-1.755-0.784-4.313,1.046-4.201,3.267c0.149,3.155,2.054,3.305,2.633,4.276L345.643,205.953z
			"></path>
		<path style="fill:#F7F7F7;" d="M393.666,175.575c1.68,3.902,2.259,7.431,2.931,11.166c2.595-3.118,5.004-5.769,8.701-7.263
			c-2.595-0.859-6.012,0.187-7.076,1.475C396.952,178.431,395.103,176.751,393.666,175.575L393.666,175.575z"></path>
		<path style="fill:#F7F7F7;" d="M370.438,234.24c-0.336,0.504-0.205,1.176,0.28,1.512c0.187,0.131,0.411,0.187,0.616,0.187
			c0.355,0,0.691-0.168,0.896-0.485c9.802-14.414,12.827-34.355,7.655-48.135c2.409,2.222,4.033,5.863,4.761,10.755l0.112,0.672
			c0.504,2.763,1.662,9.224-3.361,19.176c-0.28,0.541-0.056,1.195,0.485,1.475c0.541,0.261,1.195,0.056,1.475-0.485
			c5.359-10.624,4.052-17.831,3.566-20.539l-0.112-0.616c-1.102-7.431-4.22-12.36-8.962-14.284c-0.429-0.168-0.915-0.056-1.214,0.28
			c-0.299,0.336-0.373,0.84-0.168,1.232c6.647,12.865,3.996,34.486-6.05,49.236L370.438,234.24z"></path>
		<path style="fill:#F7F7F7;" d="M394.749,275.989c0-1.158-0.934-2.11-2.11-2.11c-1.176,0-2.11,0.934-2.11,2.11
			c0,1.176,0.934,2.11,2.11,2.11C393.815,278.099,394.749,277.166,394.749,275.989z"></path>
		<path style="fill:#F7F7F7;" d="M410.638,182.782l0.056,0.056c0,0,0-0.037,0-0.056
			C410.675,182.782,410.657,182.782,410.638,182.782z"></path>
		<path style="fill:#F7F7F7;" d="M421.299,173.745c-2.203,1.326-7.076,2.278-10.045,2.969c-0.243,1.68-0.56,3.529-0.579,6.068
			c2.521,0.392,4.406,0.373,6.087,0.392c1.158-2.801,2.857-7.487,4.518-9.448L421.299,173.745z"></path>
		<path style="fill:#F7F7F7;" d="M421.057,261.799c-0.728-0.467-1.699-0.243-2.147,0.485c-4.014,6.404-10.064,15.703-11.165,17.178
			c-0.523,0.691-0.373,1.662,0.299,2.185c0.261,0.205,0.579,0.299,0.896,0.317c0.485,0,0.971-0.205,1.288-0.616
			c1.158-1.55,7.188-10.811,11.315-17.402C422.009,263.218,421.785,262.247,421.057,261.799L421.057,261.799z"></path>
		<path style="fill:#F7F7F7;" d="M421.915,256.235c-0.598,0.952-0.411,2.166,0.448,2.707c0.859,0.541,2.035,0.205,2.651-0.747
			c0.598-0.952,0.411-2.166-0.448-2.707C423.708,254.947,422.532,255.283,421.915,256.235z"></path>
		<path style="fill:#F7F7F7;" d="M284.438,404.019c6.442,1.624,8.271-3.267,6.871-6.05c-1.251-2.465-5.676-2.203-5.583,2.39
			c-2.726-0.467-3.697-2.017-3.025-4.313C280.741,395.505,278.949,402.637,284.438,404.019L284.438,404.019z"></path>
		<path style="fill:#F7F7F7;" d="M321.986,405.942c-5.359,1.867-4.574,8.794-1.96,9.224c0-2.073,0-3.977,2.689-4.649
			c0.261,4.574,6.591,4.201,7.767,1.718C332.255,408.444,329.679,403.272,321.986,405.942z"></path>
		<path style="fill:#F7F7F7;" d="M309.458,366.359c6.964-1.643,37.754-9.522,37.754-9.522l11.726-9.168
			C350.871,346.567,317.337,359.208,309.458,366.359L309.458,366.359z"></path>
		<path style="fill:#F7F7F7;" d="M443.201,353.476c-18.821,27.858-69.887,30.901-84.544,27.727
			c-3.79,6.236-14.06,16.487-20.24,17.794c-7.413,1.55-15.945-1.064-14.974-10.587c1.232-12.006,14.881-11.147,17.719-6.199
			c0.504,0.896,0.859,1.848,1.008,2.689v0.075c0,1.064-1.139,2.073-2.446,0.822c-0.093-0.093-0.149-0.168-0.224-0.28
			c-6.124-9.242-16.244,4.164-7.693,7.338c8.552,3.174,16.804-11.502,21.939-20.053c36.671,12.697,81.127-12.715,89.436-19.306
			L443.201,353.476z"></path>
		<path style="fill:#F7F7F7;" d="M470.648,258.588c3.211-3.66,1.102-8.794-4.855-6.143c-5.321,0.28,0.205-5.62,1.923-6.591
			c1.718-0.971,7.45-2.483,8.439,2.651c0.971,5.135-1.923,23.582-13.892,28.474c6.498,3.697,23.153-12.379,17.196-32.414
			c-3.305-11.091-22.723-1.102-21.267,7.151C459.725,260.38,468.725,260.81,470.648,258.588z"></path>
		<path style="fill:#F7F7F7;" d="M420.889,292.495c-4.761-1.979-9.522,7.693-0.541,10.624c8.981,2.931,14.806-0.915,16.954-6.498
			c-3.529,1.55-12.547,4.313-15.311,1.736C423.279,297.816,424.324,293.914,420.889,292.495L420.889,292.495z"></path>
		<path style="fill:#F7F7F7;" d="M428.581,318.429c2.203,2.558,6.423-0.635,7.879-5.769c1.475-5.135,8.888-12.099,16.132-14.47
			c0,0-5.023-1.344-12.921,2.651C430.411,305.509,426.378,315.871,428.581,318.429z"></path>
		<path style="fill:#F7F7F7;" d="M503.79,311.689c-6.348-9.522-31.275-3.174-45.689,6.834
			c-14.414,10.027-27.242,20.128-23.096,30.883c-0.243-10.269,29.127-34.878,45.091-37.361c16.487-2.558,27.13,3.548,17.831,7.45
			c-1.718,2.446-1.718,10.512-3.902,15.647c9.28-2.931,16.132-13.929,9.784-23.451L503.79,311.689z"></path>
		<path style="fill:#F7F7F7;" d="M470.144,300.356c-10.307,1.382-21.995,2.931-28.474,8.682c-4.518,3.996-9.914,11.184-15.161,18.13
			c-1.848,2.446-3.641,4.855-5.377,7.039c-2.595-0.168-5.321-0.84-8.309-1.568c-3.043-0.747-6.516-1.606-10.288-1.979
			c-10.643-1.102-23.675,18.522-27.242,32.283c-0.224,0.84,0.28,1.68,1.12,1.904c0.131,0.037,0.261,0.056,0.392,0.056
			c0.691,0,1.326-0.467,1.512-1.176c3.492-13.499,15.927-30.77,23.899-29.968c3.566,0.373,6.778,1.158,9.858,1.904
			c2.297,0.56,4.537,1.102,6.74,1.419c-1.942,2.353-3.716,4.332-5.247,5.657c-8.103,7.002-15.273,10.288-19.661,10.549
			c-0.896-0.392-1.382-1.027-1.382-2.222c0-1.606-3.828-3.081-5.527-0.635c-2.297,3.305-0.485,7.487,8.309,5.825
			c0,0,0-0.019,0.037-0.037c5.545-0.84,12.921-4.78,20.258-11.128c2.054-1.774,4.444-4.537,7.002-7.749
			c1.27,0,2.539-0.149,3.828-0.467c3.977-0.952,12.398-7.413,22.163-14.881c8.514-6.516,17.29-13.238,22.48-15.703
			c8.178-2.39,19.792-5.041,23.19-4.929c3.622,0.112,8.365,7.319,9.504-2.166c0.859-7.17-8.066-10.269-14.9-8.552
			c-4.612,1.158-11.408,4.425-17.327,9.504c-0.485,0.056-0.952,0.131-1.438,0.187L470.144,300.356z M446.711,319.531
			c-8.682,6.647-17.663,13.537-21.005,14.34c-0.131,0.037-0.28,0.037-0.411,0.075c1.214-1.587,2.446-3.23,3.716-4.892
			c5.135-6.815,10.456-13.873,14.732-17.663c5.247-4.649,14.937-6.292,24.067-7.543c-0.448,0.485-0.915,0.952-1.344,1.475
			c-5.415,3.267-12.659,8.794-19.754,14.228V319.531z"></path>
		<path style="fill:#F7F7F7;" d="M285.614,419.404c-4.033-2.11-10.643-1.643-16.076,1.139c-7.076,3.622-11.875,11.651-13.537,19.362
			c-1.68-7.693-6.479-15.721-13.537-19.362c-5.433-2.801-12.043-3.267-16.076-1.139c-2.11,1.102-3.436,2.894-3.716,5.023
			c-0.392,2.969,0.131,5.247,1.55,6.759c0.859,0.915,2.483,1.96,5.247,1.755c1.288-0.093,2.259-1.232,2.166-2.521
			c-0.093-1.288-1.232-2.259-2.521-2.166c-0.336,0.019-1.158,0.056-1.494-0.299c-0.149-0.149-0.597-0.803-0.317-2.931
			c0.056-0.392,0.243-0.952,1.251-1.494c2.278-1.195,7.17-1.195,11.763,1.158c7.151,3.66,12.547,11.165,13.051,18.802
			c0.075,1.27,0.429,4.406,1.886,4.145c0.317-0.056,0.56-0.149,0.747-0.261c0.187,0.112,0.429,0.205,0.747,0.261
			c1.475,0.243,1.811-2.875,1.886-4.145c0.485-7.637,5.9-15.143,13.051-18.802c4.593-2.353,9.485-2.353,11.763-1.158
			c1.008,0.523,1.195,1.102,1.251,1.494c0.28,2.11-0.168,2.763-0.317,2.931c-0.336,0.355-1.139,0.317-1.494,0.299
			c-1.27-0.112-2.409,0.859-2.521,2.166c-0.093,1.288,0.859,2.409,2.166,2.521c2.763,0.224,4.388-0.84,5.247-1.755
			c1.419-1.512,1.942-3.772,1.55-6.759C289.05,422.298,287.724,420.506,285.614,419.404L285.614,419.404z"></path>
		<path style="fill:#F7F7F7;" d="M313.304,413.224c-1.27-0.056-2.39,0.934-2.446,2.222c-0.112,2.353-3.884,4.388-7.151,4.612
			c-3.137,0.187-7.45,0.168-7.842-1.979c-0.224-1.27-0.485-3.174-1.755-2.95c-1.27,0.224-1.326,1.68-1.102,2.969
			c0,0.093,0.056,0.168,0.075,0.243c-2.11-2.651-5.564-4.332-9.616-4.612c-0.878-0.056-1.606,0.579-1.662,1.456
			c-0.056,0.859,0.598,1.606,1.456,1.662c3.38,0.243,6.18,1.624,7.693,3.828c1.4,2.017,1.643,4.574,0.728,7.599
			c-0.243,0.822,0.224,1.699,1.046,1.942c0.149,0.037,0.299,0.075,0.448,0.075c0.672,0,1.288-0.429,1.494-1.12
			c0.934-3.081,0.784-5.545,0.205-7.45c1.699,1.662,4.444,2.483,8.122,2.483c0.411,0,0.803,0,1.232-0.037
			c6.442-0.411,11.109-3.902,11.334-8.495c0.056-1.288-0.934-2.39-2.222-2.446L313.304,413.224z"></path>
		<polygon style="fill:#F7F7F7;" points="255.983,113.044 255.983,113.044 255.983,113.044 		"></polygon>
		<path style="fill:#F7F7F7;" d="M265.655,78.595c-6.18,1.587-9.672,7.543-9.672,9.858c0-1.176-0.878-3.211-2.521-5.209
			c-1.662-1.96-4.052-3.865-7.17-4.649c-6.18-1.587-10.4,7.188-4.668,13.798c5.751,6.61,11.763,15.609,14.358,20.632
			c2.595-5.023,8.589-14.022,14.358-20.632c5.751-6.61,1.512-15.385-4.668-13.798H265.655z M266.383,90.9
			c-3.249,4.369-10.251,13.07-10.4,15.161c-0.075-1.064-1.848-3.753-4.033-6.722c-2.185-3.006-4.743-6.255-6.348-8.439
			c-3.305-4.481-2.913-7.226-1.512-8.066c2.558-1.494,9.784,5.844,10.008,10.363c0.093,2.147,0.355,4.126,0.691,5.601
			c0.019,0.093,0.037,0.168,0.075,0.261c0.205,0.467,0.635,0.766,1.139,0.766c0.504,0,0.952-0.317,1.139-0.747
			c0.075-0.131,0.112-0.504,0.112-0.504c0.317-1.438,0.56-3.324,0.654-5.377c0.224-4.518,7.45-11.856,9.989-10.363
			c1.419,0.84,1.811,3.585-1.494,8.066H266.383z"></path>
		<path style="fill:#F7F7F7;" d="M237.666,96.875c1.512,0.971,5.994,4.911,7.767,7.282c0.822,1.102,2.054,1.344,1.195-0.373
			c-1.736-3.473-6.255-10.456-9.336-10.792c-2.782-0.299-3.193,1.699-3.006,2.726C234.473,96.744,236.098,97.958,237.666,96.875z"></path>
		<path style="fill:#F7F7F7;" d="M220.881,132.518c3.772,3.062,8.271,8.029,10.531,12.192c1.046,1.942,2.595,1.792,2.017-0.243
			c-2.315-8.234-5.321-12.118-8.346-13.705C222.057,129.176,217.146,129.494,220.881,132.518z"></path>
		<path style="fill:#F7F7F7;" d="M242.241,250.652c-2.913-1.512-7.655-4.145-10.027-5.881c-1.027-2.073-1.344-3.94-1.4-6.311
			c-0.037-1.419-2.017-1.232-2.017,0.056c0,3.66,0.616,6.572,1.587,8.626c0.541,0.635,10.68,7.413,12.08,8.813
			c3.081,6.423,4.257,8.327,5.228,9.84c1.102,0.523,2.259,1.12,3.398,1.886c-1.904-5.788-3.529-10.829-3.996-12.416
			C246.516,253.322,245.153,252.146,242.241,250.652z"></path>
		<path style="fill:#F7F7F7;" d="M214.794,167.938c1.512-0.541,1.662-1.942,0.672-2.11c-2.539-0.411-6.591-2.857-9.093-4.911
			c-0.541-0.448-1.438,0.112-1.288,0.878c1.848,5.975,1.811,8.197,2.297,11.296c0.317,2.073,2.11,2.203,2.446-0.784
			c0.224-1.96,0.448-3.734,0.261-4.817c1.232,0.579,3.529,0.859,4.687,0.448H214.794z"></path>
		<path style="fill:#F7F7F7;" d="M297.191,167.938c-1.512-0.541-1.662-1.942-0.672-2.11c2.539-0.411,6.591-2.857,9.093-4.911
			c0.541-0.448,1.438,0.112,1.288,0.878c-1.848,5.975-1.811,8.197-2.297,11.296c-0.317,2.073-2.11,2.203-2.446-0.784
			c-0.224-1.96-0.448-3.734-0.261-4.817c-1.232,0.579-3.529,0.859-4.687,0.448H297.191z"></path>
		<path style="fill:#F7F7F7;" d="M216.605,175.183c2.465-1.998-2.409-4.911-4.668-5.751
			C212.292,171.822,214.14,177.18,216.605,175.183z"></path>
		<path style="fill:#F7F7F7;" d="M394.693,194.694c0.224-12.08-7.039-26.868-14.228-32.619c-1.792-1.438-3.828-2.913-6.05-4.388
			c4.07-0.28,9-2.073,12.659-6.61c0.112,2.054,2.39,15.03,9.28,13.014c-3.697-1.998-4.164-13.443-0.691-21.958
			c0.635-1.587,0.467-3.267-1.512-2.483c-4.425,1.792-9.261,10.699-14.993,12.416c-5.713,1.718-13.91-5.657-17.028-7.076
			c-3.137-1.419-4.238-2.483-9.261-0.691c4.313,0.71,5.62,2.465,6.703,3.249c0.448,0.317,1.512,1.494,2.782,2.931
			c0.019,0.019,0.037,0.037,0.075,0.075c0.025,0.025,0.031,0.037,0.019,0.037c-0.168-0.093-0.355-0.168-0.523-0.28h-0.019
			c-2.857-1.438-7.599-3.492-10.381-3.865c-5.471,6.759-15.983,12.118-30.453,14.134c-0.896,2.11-1.979,5.825-3.062,9.784
			c0.934-4.425,1.587-7.655,2.11-9.597c0.224-0.84-0.28-1.699-1.12-1.923c-0.84-0.224-1.699,0.28-1.923,1.12
			c-0.56,2.091-1.251,5.508-2.222,10.251c-1.624,7.898-3.884,18.69-7.245,32.6c-5.228,21.435-19.362,72.725-34.841,99.649
			c-14.265,24.87-17.084,41.843-14.396,61.392c0,0.019,0.019,0.019,0.019,0.037c-0.878,0.728-1.736,1.494-2.427,2.241
			c-0.654-0.747-1.512-1.512-2.409-2.241v-0.037c2.689-19.549-0.112-36.521-14.396-61.392
			c-15.46-26.924-29.594-78.214-34.803-99.649c-3.398-13.91-5.62-24.721-7.244-32.6c-0.99-4.743-1.699-8.159-2.241-10.251
			c-0.224-0.84-1.083-1.344-1.904-1.12c-0.84,0.224-1.344,1.083-1.12,1.923c0.504,1.942,1.195,5.172,2.091,9.597
			c-1.064-3.94-2.166-7.674-3.062-9.784c-14.47-1.998-24.982-7.357-30.453-14.134c-3.006,0.448-8.178,2.726-10.904,4.145
			c1.27-1.475,2.409-2.726,2.875-3.043c1.083-0.766,2.39-2.539,6.703-3.249c-5.041-1.811-6.124-0.728-9.261,0.691
			s-11.315,8.794-17.047,7.076c-5.713-1.718-10.531-10.624-14.993-12.416c-1.96-0.766-2.147,0.896-1.494,2.483
			c3.492,8.514,3.006,19.96-0.691,21.958c6.908,2.035,9.168-10.96,9.28-13.014c3.66,4.537,8.57,6.33,12.641,6.61
			c-2.203,1.475-4.238,2.95-6.05,4.388c-7.188,5.751-14.433,20.539-14.228,32.619c-2.521-6.106-9.429-12.248-14.489-10.419
			c5.713,4.761,12.062,16.618,14.433,27.41c2.39,10.773,6.367,39.247,30.957,75.488c-11.222-4.761-14.564-5.508-15.74-0.653
			c-1.363,5.62,21.976,24.609,50.431,41.973c13.686,8.383,33.59,22.294,37.548,25.113c-23.937-9.056-51.626-21.323-80.548-46.473
			c-1.008-2.819-1.382-3.996-1.382-3.996l-10.139-4.967l4.631,10.344l4.631,1.307c0,0,16.842,16.375,37.324,27.596
			c-17.047-2.801-36.092-4.537-40.256,2.054c-4.164,6.572,2.073,5.489,4.892,3.342c2.801-2.166,17.458-3.249,33.646,0.205
			c16.151,3.454,65.761,21.995,74.405,26.551c-4.313,4.108-7.338,5.153-14.022,3.025c-6.703-2.166-6.05-5.489-4.743-5.396
			c2.222,0.149,3.081-2.95,1.064-4.668c-3.043-2.633-7.973-0.504-7.543,3.174c0.448,3.66,4.313,12.491,23.302,11.632
			c-7.338,6.684-12.491,20.333-10.139,28.044c2.278,7.431,9.242,11.744,15.871,5.657c-2.073,0.56-3.529,0.224-4.369-0.691
			c-1.662-1.755-1.232-4.5-1.363-6.927c-0.224-3.678,1.027-17.29,10.325-23.022c9.28,5.732,10.531,19.325,10.325,23.022
			c-0.131,2.427,0.28,5.153-1.344,6.927c-0.859,0.896-2.315,1.232-4.388,0.691c6.628,6.087,13.63,1.755,15.871-5.657
			c2.353-7.711-2.801-21.36-10.139-28.044c18.989,0.859,22.854-7.973,23.302-11.632c0.448-3.678-4.5-5.807-7.543-3.174
			c-2.035,1.718-1.176,4.836,1.083,4.668c1.27-0.093,1.942,3.249-4.761,5.396c-6.684,2.147-9.709,1.083-14.022-3.025
			c8.645-4.537,58.236-23.078,74.405-26.551c16.188-3.436,30.845-2.353,33.665-0.205c2.801,2.147,9.037,3.211,4.873-3.342
			c-4.164-6.591-23.209-4.855-40.255-2.054c20.501-11.221,37.324-27.596,37.324-27.596l4.631-1.307l4.63-10.344l-10.139,4.967
			c0,0-0.373,1.176-1.382,3.996c-28.922,25.15-56.612,37.417-80.548,46.473c3.94-2.819,23.862-16.73,37.548-25.113
			c28.455-17.364,51.813-36.353,50.431-41.973c-1.176-4.855-4.518-4.108-15.74,0.653c24.59-36.241,28.567-64.696,30.957-75.488
			c2.39-10.773,8.738-22.648,14.433-27.41c-5.041-1.83-11.95,4.313-14.489,10.419L394.693,194.694z M208.744,233.624
			c-4.257-3.585-10.176-8.01-16.244-7.413c6.367,3.137,19.53,19.624,21.64,26.999c3.622,12.323,7.786,24.87,12.416,35.793
			c-13.182-7.543-48.676-33.067-54.651-44.905c15.385,4.855,14.881-11.427,10.027-15.292c-4.855-3.884-7.338-1.195-7.973,1.083
			c-0.635,2.241,2.689,5.377,5.601,1.83c3.249,1.494,4.873,10.12-4.631,9.485c-9.485-0.635-15.852-18.018-17.794-30.733
			c-1.942-12.715,2.558-24.291,15.217-25.654c9.56-1.027,18.877,6.236,29.744,21.827c1.718,7.095,3.94,16.543,6.666,26.98
			L208.744,233.624z M198.755,192.566c0.243,1.083,0.504,2.203,0.747,3.324c-3.342-4.556-9.989-11.24-21.341-13.761
			c-20.52-4.593-25.356,15.404-25.356,31.032c-6.236-15.964,3.678-33.945,19.063-34.281c14.265-0.317,22.555,6.871,26.868,13.667
			L198.755,192.566z M134.656,250.914c8.495,20.707,43.094,53.55,51.141,57.844c-0.373-2.315-0.691-3.884-0.971-8.514
			c1.699,4.743,6.05,15.217,9.186,19.81c-6.46-5.321-25.02-18.261-34.635-25.3c-3.622-6.33-16.244-23.153-24.74-43.84H134.656z
			 M139.847,292.308c-2.894-3.155,0.579-6.012,13.219,2.166c12.641,8.197,27.335,16.076,44.55,36.092
			c-27.447-13.873-54.913-35.084-57.788-38.258L139.847,292.308z M251.128,362.027c-0.691-0.485-1.307-0.934-1.736-1.251
			c-3.902-2.969-23.862-15.105-44.008-34.075c-20.128-18.989-18.261-30.472-19.978-41.843c-4.462,2.315-3.753,9.354-3.753,15.535
			c-12.211-7.058-26.588-25.02-36.671-38.258c-10.045-13.219-26.868-55.79-22.424-69.028c4.462-13.219,12.659-16.674,34.542-25.094
			c-6.703-1.494-14.414-2.222-24.049,0.896c24.441-21.883,54.632-1.55,56.686,0c1.904,1.456,2.353,3.081,6.236,11.222
			c0.037,0.131,0.075,0.28,0.093,0.411c-11.147-12.454-45.876-15.945-53.662,3.641c-8.327,20.987-0.168,41.394,12.977,56.649
			c13.089,15.143,52.504,41.936,77.057,60.607c0.448,0.822,0.878,1.606,1.344,2.409c1.214,2.11,2.334,4.145,3.398,6.143
			c1.867,7.226,3.772,17.925,0.317,21.715c-1.55,1.662-3.884,2.763-6.61,2.521c-4.033-0.373-8.271-6.124-10.008-9.13
			c-2.819-4.911,3.398-7.17,4.257-8.701c2.073-3.753-4.164-6.908-6.61-7.767c-1.811-0.635-5.751-1.512-8.421,3.38
			c-1.568,2.913-0.037,10.045,2.894,15.105c3.51,6.068,9.915,11.128,16.674,12.08c9.056,1.232,11.688-2.689,13.611-4.761
			c1.512-1.662,2.203-3.79,2.409-6.106c4.276,11.558,5.713,21.752,5.471,33.683L251.128,362.027z M313.229,192.566
			c4.313-6.796,12.603-13.985,26.849-13.667c15.404,0.336,25.337,18.317,19.064,34.281c0-15.628-4.799-35.625-25.337-31.032
			c-11.352,2.521-17.981,9.186-21.36,13.761c0.261-1.12,0.523-2.241,0.766-3.324L313.229,192.566z M297.825,253.229
			c1.064-3.678,4.892-9.653,9.242-15.105c4.369-5.415,9.242-10.344,12.416-11.912c-6.05-0.597-11.987,3.809-16.244,7.413
			c2.726-10.456,4.967-19.885,6.666-26.98c10.885-15.591,20.165-22.854,29.762-21.827c12.641,1.363,17.159,12.939,15.217,25.654
			c-1.961,12.715-8.309,30.098-17.812,30.733c-9.485,0.635-7.879-7.973-4.63-9.485c2.913,3.548,6.255,0.411,5.601-1.83
			c-0.635-2.278-3.099-4.967-7.954-1.083c-4.873,3.884-5.359,20.146,10.008,15.292c-5.956,11.838-41.469,37.361-54.651,44.905
			c4.649-10.941,8.794-23.47,12.416-35.793L297.825,253.229z M372.119,292.308c-2.857,3.174-30.341,24.385-57.788,38.258
			c17.215-20.016,31.928-27.895,44.55-36.092c12.659-8.178,16.113-5.321,13.219-2.166H372.119z M352.589,294.754
			c-9.634,7.058-28.194,19.997-34.654,25.3c3.155-4.612,7.487-15.086,9.186-19.81c-0.28,4.63-0.598,6.199-0.971,8.514
			c8.047-4.294,42.664-37.156,51.141-57.844c-8.495,20.707-21.117,37.529-24.721,43.84L352.589,294.754z M366.966,262.135
			c-10.083,13.219-24.441,31.2-36.671,38.258c0-6.199,0.71-13.219-3.753-15.535c-1.718,11.371,0.149,22.854-19.978,41.843
			s-40.106,31.107-44.008,34.075c-0.411,0.336-1.046,0.766-1.718,1.251c-0.243-11.931,1.195-22.126,5.452-33.683
			c0.224,2.315,0.896,4.462,2.427,6.106c1.905,2.073,4.537,5.994,13.574,4.761c6.759-0.952,13.182-6.012,16.692-12.08
			c2.913-5.041,4.444-12.192,2.857-15.105c-2.651-4.892-6.61-4.014-8.402-3.38c-2.446,0.859-8.701,4.014-6.61,7.767
			c0.859,1.55,7.058,3.79,4.238,8.701c-1.718,3.006-5.975,8.757-9.989,9.13c-2.726,0.243-5.097-0.859-6.61-2.521
			c-3.454-3.79-1.568-14.489,0.28-21.715c1.083-1.998,2.185-4.033,3.417-6.143c0.448-0.803,0.878-1.587,1.326-2.409
			c24.553-18.671,63.95-45.465,77.057-60.607c13.182-15.255,21.341-35.662,12.977-56.649c-7.767-19.568-42.496-16.095-53.662-3.641
			c0.037-0.149,0.075-0.28,0.093-0.411c3.902-8.141,4.369-9.765,6.236-11.221c2.054-1.55,32.227-21.883,56.686,0
			c-9.634-3.137-17.346-2.409-24.049-0.896c21.883,8.421,30.098,11.856,34.542,25.094c4.444,13.219-12.36,55.79-22.424,69.028
			L366.966,262.135z"></path>
		<path style="fill:#F7F7F7;" d="M134.805,147.885c0.075,0.71-0.373,1.326-0.952,1.55c-0.803,0.261-1.68,0.093-2.185-0.504
			c-0.336-0.398-0.349-0.411-0.037-0.037c-0.261-0.355-0.523-0.803-0.784-1.27c-2.39-4.406-14.246-17.794-30.528-9.653
			c-17.7,8.869-22.648,32.731-22.2,55.827c0.411,23.078,20.37,62.867,27.372,72.688c-1.083-5.079-3.324-14.956,2.297-18.914
			c5.844-4.108,14.246-1.867,18.41,4.668c3.921,6.124,0.859,9.709-1.83,9.915s-4.967-1.942-3.137-6.908
			c-0.317-2.054-9.597-9.915-12.939-1.083c-3.324,8.832,6.591,25.542,13.611,35.476l4.631,1.27l1.419,6.591l-6.591-1.008
			c0,0-1.064-3.249-1.475-5.452c-20.128-17.271-40.666-57.807-45.427-92.946c-2.819-20.987,2.409-53.904,24.385-64.286
			c19.624-9.261,34.262,8.776,35.868,13.611c0.037,0.168,0.112,0.336,0.131,0.485L134.805,147.885z"></path>
		<path style="fill:#F7F7F7;" d="M377.216,147.885c-0.075,0.71,0.373,1.326,0.952,1.55c0.803,0.261,1.68,0.093,2.185-0.504
			l0.037-0.037c0.261-0.355,0.523-0.803,0.803-1.27c2.39-4.406,14.246-17.794,30.528-9.653c17.7,8.869,22.648,32.731,22.2,55.827
			c-0.411,23.078-20.371,62.867-27.372,72.688c1.083-5.079,3.324-14.956-2.297-18.914c-5.844-4.108-14.246-1.867-18.41,4.668
			c-3.921,6.124-0.859,9.709,1.83,9.915s4.967-1.942,3.137-6.908c0.317-2.054,9.597-9.915,12.939-1.083
			c3.323,8.832-6.591,25.542-13.611,35.476l-4.63,1.27l-1.419,6.591l6.591-1.008c0,0,1.064-3.249,1.475-5.452
			c20.128-17.271,40.666-57.807,45.427-92.946c2.819-20.987-2.409-53.904-24.385-64.286c-19.624-9.261-34.262,8.776-35.868,13.611
			c-0.037,0.168-0.112,0.336-0.131,0.485L377.216,147.885z"></path>
		<path style="fill:#F7F7F7;" d="M255.983,166.276h0.019c6.964-2.278,9.709-14.974,1.774-13.313
			c1.736-3.099-0.243-5.377-1.774-6.348h-0.019c-1.531,0.952-3.51,3.249-1.774,6.348
			C246.274,151.302,249.018,163.998,255.983,166.276z"></path>
		<path style="fill:#F7F7F7;" d="M238.506,159.256c0.691,2.035,2.745,6.722,4.649,8.794c2.502,0.485,5.377,0.616,8.122,0.429
			C250.848,166.146,244.425,159.984,238.506,159.256z"></path>
		<path style="fill:#F7F7F7;" d="M135.478,202.872c-0.597,0.037-1.064,0.541-1.027,1.158c0.71,13.126,5.713,24.329,13.07,34.281
			c-0.392-0.28-0.784-0.541-1.214-0.784c-0.523-0.299-2.446-1.55-2.801-0.541c-0.187,0.579,1.307,2.278,1.83,2.577
			c2.931,1.68,9.802,8.757,9.802,8.757s8.869,7.45,10.717,12.192c0.616,1.568,0.99,3.716,1.587,3.716h0.037
			c0.616-0.019,1.064-1.96,0.654-3.772c-0.093-0.392-0.205-0.747-0.317-1.083c2.651,2.259,5.359,4.462,8.085,6.628
			c14.47,11.446,28.026,20.893,36.988,27.167c3.678,2.577,6.591,4.593,8.477,6.012c0.187,0.149,0.429,0.224,0.654,0.224
			c0.336,0,0.653-0.149,0.878-0.448c0.355-0.485,0.261-1.176-0.224-1.531c-1.923-1.438-4.836-3.473-8.533-6.05
			c-8.944-6.255-22.462-15.684-36.895-27.092c-20.277-16.02-39.229-34.411-40.629-60.383c-0.037-0.597-0.541-1.083-1.158-1.027
			L135.478,202.872z"></path>
		<path style="fill:#F7F7F7;" d="M164.754,198.41c-5.079,2.278-4.425,6.46-2.95,8.776c0.299,0.467,1.512,2.129,2.95,1.867
			c1.792-0.317,1.288-2.614,1.587-3.099c0.579-0.971,2.483-1.102,2.633-4.276c0.093-2.222-2.446-4.07-4.201-3.267L164.754,198.41z"></path>
		<path style="fill:#F7F7F7;" d="M115.369,186.74c0.672-3.716,1.27-7.245,2.931-11.165c-1.438,1.195-3.286,2.857-4.556,5.377
			c-1.083-1.288-4.5-2.353-7.076-1.475C110.365,180.952,112.792,183.603,115.369,186.74z"></path>
		<path style="fill:#F7F7F7;" d="M135.496,185.004c0.205-0.411,0.149-0.896-0.168-1.232c-0.299-0.336-0.803-0.448-1.214-0.28
			c-4.761,1.904-7.861,6.852-8.962,14.284l-0.112,0.616c-0.485,2.707-1.792,9.933,3.566,20.539c0.28,0.541,0.934,0.766,1.475,0.485
			s0.747-0.934,0.485-1.475c-5.023-9.971-3.865-16.412-3.361-19.176l0.112-0.672c0.728-4.892,2.353-8.533,4.78-10.755
			c-5.172,13.779-2.147,33.739,7.655,48.135c0.205,0.317,0.56,0.485,0.896,0.485c0.205,0,0.429-0.056,0.616-0.187
			c0.504-0.336,0.635-1.027,0.28-1.512c-10.045-14.75-12.697-36.391-6.05-49.236L135.496,185.004z"></path>
		<path style="fill:#F7F7F7;" d="M117.236,275.989c0,1.158,0.934,2.11,2.11,2.11s2.11-0.934,2.11-2.11c0-1.176-0.934-2.11-2.11-2.11
			S117.236,274.813,117.236,275.989z"></path>
		<path style="fill:#F7F7F7;" d="M101.29,182.8c-0.019-2.558-0.336-4.406-0.579-6.068c-2.95-0.691-7.842-1.643-10.045-2.969
			c1.662,1.96,3.38,6.628,4.518,9.448c1.699-0.019,3.566,0,6.087-0.392L101.29,182.8z"></path>
		<path style="fill:#F7F7F7;" d="M101.346,182.782c0,0-0.037,0-0.056,0c0,0.019,0,0.037,0,0.056L101.346,182.782z"></path>
		<path style="fill:#F7F7F7;" d="M103.045,281.983c0.317,0,0.635-0.112,0.896-0.317c0.691-0.523,0.822-1.494,0.299-2.185
			c-1.102-1.456-7.151-10.773-11.165-17.178c-0.448-0.728-1.419-0.952-2.147-0.485c-0.728,0.467-0.952,1.419-0.485,2.147
			c4.126,6.591,10.157,15.852,11.315,17.402C102.075,281.778,102.56,282.002,103.045,281.983z"></path>
		<path style="fill:#F7F7F7;" d="M89.602,258.961c0.859-0.541,1.064-1.755,0.448-2.707c-0.597-0.952-1.792-1.288-2.651-0.747
			c-0.859,0.541-1.064,1.755-0.448,2.707C87.567,259.166,88.743,259.503,89.602,258.961z"></path>
		<path style="fill:#F7F7F7;" d="M226.258,400.36c0.093-4.574-4.35-4.836-5.583-2.39c-1.4,2.782,0.429,7.674,6.871,6.05
			c5.489-1.382,3.697-8.514,1.736-7.973C229.955,398.343,228.984,399.893,226.258,400.36z"></path>
		<path style="fill:#F7F7F7;" d="M189.998,405.942c-7.674-2.67-10.269,2.502-8.495,6.292c1.158,2.502,7.487,2.857,7.767-1.718
			c2.67,0.672,2.689,2.558,2.689,4.649C194.591,414.737,195.357,407.809,189.998,405.942z"></path>
		<path style="fill:#F7F7F7;" d="M153.029,347.669l11.726,9.168c0,0,30.789,7.879,37.754,9.522
			C194.629,359.208,161.095,346.567,153.029,347.669L153.029,347.669z"></path>
		<path style="fill:#F7F7F7;" d="M173.549,398.996c-6.143-1.307-16.431-11.558-20.221-17.794
			c-14.657,3.174-65.742,0.131-84.544-27.727c8.309,6.591,52.784,32.003,89.436,19.306c5.135,8.551,13.387,23.227,21.939,20.053
			s-1.568-16.58-7.711-7.338c-0.037,0.093-0.112,0.149-0.149,0.243h-0.019c-1.307,1.326-2.465,0.317-2.465-0.766V384.9
			c0.168-0.84,0.504-1.811,1.008-2.689c2.819-4.967,16.468-5.825,17.7,6.199C189.513,397.932,180.98,400.528,173.549,398.996
			L173.549,398.996z"></path>
		<path style="fill:#F7F7F7;" d="M145.448,385.03c3.548,0.971,5.994,3.305,7.581,8.066
			C158.518,384.918,148.958,382.51,145.448,385.03z"></path>
		<path style="fill:#F7F7F7;" d="M366.517,385.03c-3.548,0.971-5.994,3.305-7.581,8.066
			C353.447,384.918,363.007,382.51,366.517,385.03z"></path>
		<path style="fill:#F7F7F7;" d="M49.72,276.979c-11.968-4.892-14.881-23.339-13.892-28.474c0.971-5.135,6.722-3.641,8.439-2.651
			c1.718,0.971,7.244,6.871,1.923,6.591c-5.956-2.651-8.066,2.483-4.855,6.143c1.942,2.222,10.923,1.792,12.454-6.871
			c1.475-8.253-17.962-18.242-21.267-7.151C26.567,264.6,43.222,280.676,49.72,276.979z"></path>
		<path style="fill:#F7F7F7;" d="M74.684,296.621c2.147,5.583,7.973,9.448,16.954,6.498c8.981-2.931,4.22-12.603-0.541-10.624
			c-3.436,1.419-2.39,5.321-1.102,5.863C87.249,300.916,78.213,298.171,74.684,296.621z"></path>
		<path style="fill:#F7F7F7;" d="M75.505,312.66c1.475,5.135,5.676,8.346,7.879,5.769c2.203-2.558-1.83-12.921-11.091-17.588
			c-7.898-3.996-12.921-2.651-12.921-2.651C66.618,300.58,74.03,307.544,75.505,312.66z"></path>
		<path style="fill:#F7F7F7;" d="M53.884,318.523c-14.414-10.027-39.341-16.375-45.689-6.834c-6.348,9.522,0.485,20.52,9.784,23.451
			c-2.203-5.135-2.203-13.201-3.902-15.647c-9.28-3.902,1.344-10.027,17.831-7.45c15.964,2.483,45.334,27.092,45.091,37.361
			c4.145-10.755-8.682-20.856-23.097-30.883L53.884,318.523z"></path>
		<path style="fill:#F7F7F7;" d="M17.68,301.382c3.398-0.112,15.012,2.539,23.19,4.929c5.191,2.465,13.985,9.186,22.48,15.703
			c9.765,7.469,18.205,13.929,22.163,14.881c1.27,0.317,2.539,0.448,3.828,0.467c2.577,3.23,4.967,5.994,7.02,7.767
			c7.338,6.348,14.713,10.288,20.258,11.128c0,0,0,0.019,0.037,0.037c8.794,1.643,10.605-2.539,8.309-5.825
			c-1.699-2.446-5.527-0.952-5.527,0.635c0,1.195-0.485,1.811-1.363,2.222c-4.388-0.261-11.558-3.548-19.661-10.549
			c-1.531-1.326-3.324-3.305-5.247-5.657c2.203-0.317,4.444-0.859,6.74-1.419c3.099-0.766,6.292-1.55,9.877-1.904
			c7.954-0.803,20.389,16.468,23.899,29.968c0.187,0.71,0.822,1.176,1.512,1.176c0.131,0,0.261,0,0.392-0.056
			c0.84-0.224,1.344-1.064,1.12-1.904c-3.566-13.761-16.543-33.422-27.242-32.283c-3.79,0.392-7.245,1.232-10.288,1.979
			c-2.987,0.728-5.713,1.4-8.309,1.568c-1.718-2.203-3.529-4.593-5.359-7.039c-5.228-6.946-10.643-14.134-15.161-18.13
			c-6.479-5.751-18.167-7.301-28.474-8.682c-0.485-0.056-0.952-0.131-1.419-0.187c-5.919-5.079-12.697-8.346-17.327-9.504
			c-6.834-1.718-15.759,1.382-14.9,8.552c1.139,9.485,5.863,2.297,9.504,2.166L17.68,301.382z M82.974,329.053
			c1.251,1.662,2.502,3.305,3.697,4.892c-0.131-0.037-0.28-0.037-0.411-0.075c-3.324-0.803-12.304-7.693-21.005-14.34
			c-7.076-5.415-14.34-10.96-19.754-14.228c-0.429-0.523-0.896-0.99-1.344-1.475c9.13,1.251,18.821,2.913,24.067,7.543
			c4.276,3.79,9.597,10.848,14.732,17.663L82.974,329.053z"></path>
		<path style="fill:#F7F7F7;" d="M230.198,415.185c-0.056-0.859-0.84-1.494-1.662-1.456c-4.052,0.28-7.506,1.96-9.616,4.612
			c0-0.093,0.056-0.168,0.075-0.243c0.224-1.27,0.168-2.745-1.102-2.969c-1.27-0.224-1.531,1.662-1.755,2.95
			c-0.373,2.129-4.705,2.166-7.842,1.979c-3.286-0.205-7.039-2.241-7.151-4.612c-0.056-1.288-1.176-2.297-2.446-2.222
			c-1.288,0.056-2.297,1.158-2.222,2.446c0.224,4.593,4.892,8.103,11.334,8.495c0.411,0.019,0.822,0.037,1.232,0.037
			c3.66,0,6.404-0.822,8.122-2.483c-0.56,1.905-0.728,4.369,0.205,7.45c0.205,0.672,0.822,1.12,1.494,1.12
			c0.149,0,0.299-0.019,0.448-0.075c0.822-0.243,1.288-1.12,1.046-1.942c-0.915-3.025-0.672-5.583,0.728-7.599
			c1.512-2.203,4.313-3.585,7.693-3.828c0.859-0.056,1.512-0.803,1.456-1.662L230.198,415.185z"></path>
		<path style="fill:#F7F7F7;" d="M255.983,76.075c1.008,0,2.894-2.969,3.118-4.182c0.299-1.718-1.344-7.543-3.118-7.543
			c-1.774,0-3.417,5.825-3.118,7.543C253.089,73.125,254.975,76.075,255.983,76.075z"></path>
		<path style="fill:#F7F7F7;" d="M405.41,225.857l3.772,1.139l1.195,3.753c0.317,1.008,1.68,1.214,2.278,0.336l2.241-3.23h3.94
			c1.064,0.019,1.68-1.195,1.027-2.054l-2.39-3.137l1.232-3.734c0.336-1.008-0.635-1.961-1.643-1.624l-3.716,1.288l-3.174-2.334
			c-0.859-0.635-2.073,0-2.054,1.064l0.075,3.94l-3.193,2.297c-0.859,0.616-0.635,1.96,0.373,2.278L405.41,225.857z"></path>
		<path style="fill:#F7F7F7;" d="M384.517,326.495c-1.718-2.689-6.834-3.305-8.664-2.558c-1.83,0.728-7.263,4.761-6.087,6.815
			c1.475,2.558,8.402,0.504,10.493,0.56C383.098,331.406,386.234,329.184,384.517,326.495z"></path>
		<path style="fill:#F7F7F7;" d="M93.131,227.873h3.94l2.241,3.211c0.616,0.878,1.96,0.672,2.278-0.336l1.195-3.753l3.772-1.139
			c1.027-0.299,1.251-1.662,0.373-2.278l-3.193-2.297l0.075-3.94c0.019-1.064-1.195-1.699-2.054-1.064l-3.174,2.334l-3.716-1.288
			c-1.008-0.355-1.979,0.597-1.643,1.624l1.232,3.734l-2.39,3.137c-0.653,0.84-0.037,2.073,1.027,2.073L93.131,227.873z"></path>
		<path style="fill:#F7F7F7;" d="M142.218,330.734c1.176-2.054-4.257-6.087-6.087-6.815s-6.946-0.131-8.664,2.558
			c-1.718,2.689,1.419,4.911,4.257,4.817C133.816,331.219,140.743,333.292,142.218,330.734z"></path>
		<path style="fill:#F7F7F7;" d="M231.579,150.704c-5.041-8.514-29.333-27.167-49.143-33.067
			c-18.671-5.564-34.934-4.444-35.942,10.213c-0.934,13.667,12.603,12.491,10.848,3.529l0.859,0.205
			c2.427,0.56,4.929,1.158,10.829,1.288c0,0,0.019,0,0.037,0c0.84,0,1.55-0.672,1.568-1.531c0.019-0.859-0.653-1.587-1.531-1.606
			c-5.041-0.112-7.357-0.56-9.522-1.046c0.168-0.952,0.579-2.166,0.971-3.081l0,0c0.429-1.102-0.056-2.073-0.896-2.315
			c-0.803-0.224-1.55,0.243-2.054,1.344c-0.485,1.176-0.99,2.651-1.139,4.014c-2.595-7.039,2.409-8.458,7.861-8.495
			c5.601-0.056,25.841,3.772,38.202,11.165c10.867,6.498,22.742,13.985,25.486,17.981c2.913,4.238,5.433,4.593,3.566,1.438
			L231.579,150.704z"></path>
		<path style="fill:#F7F7F7;" d="M280.368,150.704c5.041-8.514,29.333-27.167,49.143-33.067
			c18.671-5.564,34.934-4.444,35.942,10.213c0.934,13.667-12.603,12.491-10.848,3.529l-0.859,0.205
			c-2.427,0.56-4.929,1.158-10.829,1.288c0,0-0.019,0-0.037,0c-0.84,0-1.55-0.672-1.568-1.531c-0.019-0.859,0.654-1.587,1.531-1.606
			c5.041-0.112,7.357-0.56,9.522-1.046c-0.168-0.952-0.579-2.166-0.971-3.081l0,0c-0.429-1.102,0.056-2.073,0.896-2.315
			c0.803-0.224,1.55,0.243,2.054,1.344c0.485,1.176,0.99,2.651,1.139,4.014c2.595-7.039-2.409-8.458-7.861-8.495
			c-5.601-0.056-25.841,3.772-38.202,11.165c-10.867,6.498-22.742,13.985-25.486,17.981c-2.913,4.238-5.433,4.593-3.566,1.438
			V150.704z"></path>
		<path style="fill:#F7F7F7;" d="M174.408,134.834c-1.083-4.911-3.137-3.921-2.353,0c0.747,3.921,6.348,15.479,6.684,17.084
			c-0.093,0.355-1.064-0.131-1.811-0.467c-0.952-0.635-1.867-1.344-2.689-2.11c-0.411-0.766-0.934-1.699-1.27-2.689h-0.019l0,0l0,0
			c-0.019-0.075-0.037-0.131-0.075-0.205c0,0,0-0.019,0-0.037c-0.112-0.317-0.205-0.597-0.28-0.952
			c-0.056-0.243-0.131-0.504-0.187-0.822c-1.382-0.373-3.585-0.803-5.415-0.878c-1.008-0.037-2.11,0-3.249,0.112
			c-0.71,0.056-1.438,0.112-2.166,0.187l0,0l0,0c0.336,0.317,0.822,0.878,1.176,1.288c0.112,0.149,0.224,0.261,0.299,0.336
			c0.093,0.112,0.149,0.224,0.261,0.317c0.019,0.019,0.037,0.037,0.037,0.075c2.11,2.334,8.402,6.255,11.296,7.413
			c3.492,1.4,9.971,3.436,14.508,4.687h0.019l0.467,0.093c0,0,0.112,0.019,0.149,0.019c-7.357-8.944-14.265-18.541-15.348-23.451
			H174.408z"></path>
		<path style="fill:#F7F7F7;" d="M337.595,134.834c1.083-4.911,3.137-3.921,2.353,0c-0.747,3.921-6.348,15.479-6.684,17.084
			c0.093,0.355,1.064-0.131,1.811-0.467c0.952-0.635,1.867-1.344,2.689-2.11c0.411-0.766,0.934-1.699,1.27-2.689h0.019l0,0l0,0
			c0.019-0.075,0.037-0.131,0.075-0.205c0,0,0-0.019,0-0.037c0.112-0.317,0.205-0.597,0.28-0.952
			c0.056-0.243,0.131-0.504,0.187-0.822c1.382-0.373,3.585-0.803,5.415-0.878c1.008-0.037,2.11,0,3.249,0.112
			c0.71,0.056,1.438,0.112,2.166,0.187l0,0l0,0c-0.336,0.317-0.822,0.878-1.176,1.288c-0.112,0.149-0.224,0.261-0.299,0.336
			c-0.093,0.112-0.149,0.224-0.261,0.317c-0.019,0.019-0.037,0.037-0.037,0.075c-2.11,2.334-8.402,6.255-11.296,7.413
			c-3.492,1.4-9.97,3.436-14.508,4.687h-0.019l-0.467,0.093c0,0-0.112,0.019-0.149,0.019c7.357-8.944,14.265-18.541,15.348-23.451
			H337.595z"></path>
		<path style="fill:#F7F7F7;" d="M321.594,135.3c-2.035,1.232-12.36,7.842-23.75,15.236c0.392-5.396-6.572-7.058-10.904-1.736
			c-2.222,2.726,0.224,4.929,2.222,3.996c1.923-0.896,3.772-2.95,3.996,0.803c-9.971,6.498-19.978,13.107-25.393,16.898h-23.601
			c-5.396-3.772-15.423-10.4-25.393-16.898c0.224-3.734,2.073-1.68,3.996-0.803c2.017,0.934,4.462-1.251,2.222-3.996
			c-4.332-5.321-11.296-3.641-10.904,1.736c-11.371-7.394-21.696-14.004-23.75-15.236c-2.315-1.4-4.276,0.691-1.83,2.502
			c6.572,4.855,34.654,24.254,46.156,33.104c4.668,3.585,11.558,9.765,16.095,14.377c2.689,2.726,4.481,5.359,5.191,5.359
			c0.71,0,2.502-2.633,5.191-5.359c4.556-4.612,11.427-10.792,16.095-14.377c11.502-8.85,39.583-28.25,46.156-33.104
			c2.446-1.811,0.485-3.902-1.83-2.502H321.594z M262.686,178.357c-1.214,0.784-3.977,2.577-6.442,6.012l0,0
			c0,0-0.131,0.149-0.224,0.149h-0.037c-0.112,0-0.224-0.075-0.28-0.168c0-0.019-0.019-0.056-0.019-0.075
			c-2.427-3.361-5.153-5.135-6.33-5.881c-0.112-0.075-0.187-0.224-0.149-0.355c0.037-0.131,0.131-0.243,0.261-0.243
			c0.467-0.037,0.822-0.056,1.214-0.056c1.998,0,3.734,0.597,5.321,1.83c1.587-1.232,3.324-1.83,5.321-1.83
			c0.392,0,0.747,0.019,1.027,0.037c0.131,0,0.336,0.112,0.373,0.243c0.037,0.131,0.075,0.28-0.037,0.355L262.686,178.357z"></path>
	</g>
</g></svg></g></g><defs><clipPath id="SvgjsClipPath1865"><rect width="1000" height="1000" x="0" y="0" rx="250" ry="250"></rect></clipPath></defs></svg>